<svg width="960" height="500" version="1.1" xmlns="http://www.w3.org/2000/svg"><g transform="translate(480,250)"><g class="arc"><path d="M1.4695276245868527e-14,-240A240,240 0 0,1 213.77108887484863,-109.09592825244013L160.32831665613648,-81.8219461893301A180,180 0 0,0 1.1021457184401395e-14,-180Z" style="fill: #98abc5;"></path><text transform="translate(109.66682083386507,-179.08988918471343)" dy=".35em" style="text-anchor: middle;font-size:12px">interpréter</text></g><g class="arc"><path d="M213.77108887484863,-109.09592825244013A240,240 0 0,1 223.8920891356801,-86.4426539531305L167.91906685176008,-64.83199046484788A180,180 0 0,0 160.32831665613648,-81.8219461893301Z" style="fill: #8a89a6;"></path><text transform="translate(191.73395857479653,-85.66264722291858)" dy=".35em" style="text-anchor: middle;font-size:12px">organiser</text></g><g class="arc"><path d="M223.8920891356801,-86.4426539531305A240,240 0 0,1 233.88366567999117,-53.837077633264244L175.41274925999338,-40.37780822494818A180,180 0 0,0 167.91906685176008,-64.83199046484788Z" style="fill: #7b6888;"></path><text transform="translate(200.7842679725147,-61.52786145106458)" dy=".35em" style="text-anchor: middle;font-size:12px">créer</text></g><g class="arc"><path d="M233.88366567999117,-53.837077633264244A240,240 0 0,1 238.1921197702103,-29.40262028074694L178.64408982765772,-22.051965210560205A180,180 0 0,0 175.41274925999338,-40.37780822494818Z" style="fill: #6b486b;"></path><text transform="translate(206.8096281325637,-36.466117310055424)" dy=".35em" style="text-anchor: middle;font-size:12px">traduire</text></g><g class="arc"><path d="M238.1921197702103,-29.40262028074694A240,240 0 0,1 239.59395798510437,-13.954758938514255L179.69546848882828,-10.46606920388569A180,180 0 0,0 178.64408982765772,-22.051965210560205Z" style="fill: #a05d56;"></path><text transform="translate(209.14063798866195,-18.978765547196367)" dy=".35em" style="text-anchor: middle;font-size:12px">critiquer</text></g><g class="arc"><path d="M239.59395798510437,-13.954758938514255A240,240 0 0,1 239.75434227234564,10.85612092576946L179.81575670425923,8.142090694327095A180,180 0 0,0 179.69546848882828,-10.46606920388569Z" style="fill: #d0743c;"></path><text transform="translate(209.9956125215772,-1.3574688532733221)" dy=".35em" style="text-anchor: middle;font-size:12px">élaborer</text></g><g class="arc"><path d="M239.75434227234564,10.85612092576946A240,240 0 0,1 237.3523292051033,35.550974964299634L178.01424690382748,26.663231223224727A180,180 0 0,0 179.81575670425923,8.142090694327095Z" style="fill: #ff8c00;"></path><text transform="translate(209.01358711656482,20.330282847667565)" dy=".35em" style="text-anchor: middle;font-size:12px">expliquer</text></g><g class="arc"><path d="M237.3523292051033,35.550974964299634A240,240 0 0,1 217.84055798338775,100.72482959770286L163.38041848754082,75.54362219827715A180,180 0 0,0 178.01424690382748,26.663231223224727Z" style="fill: #98abc5;"></path><text transform="translate(201.1777975862527,60.228678869328874)" dy=".35em" style="text-anchor: middle;font-size:12px">réaliser</text></g><g class="arc"><path d="M217.84055798338775,100.72482959770286A240,240 0 0,1 144.55947598605965,191.57911656189418L108.41960698954473,143.68433742142065A180,180 0 0,0 163.38041848754082,75.54362219827715Z" style="fill: #8a89a6;"></path><text transform="translate(163.45663150407367,131.8405461811406)" dy=".35em" style="text-anchor: middle;font-size:12px">reconnaître</text></g><g class="arc"><path d="M144.55947598605965,191.57911656189418A240,240 0 0,1 129.27884764444522,202.20529061259577L96.95913573333392,151.65396795944685A180,180 0 0,0 108.41960698954473,143.68433742142065Z" style="fill: #7b6888;"></path><text transform="translate(119.89443289636233,172.4103389024558)" dy=".35em" style="text-anchor: middle;font-size:12px">produire</text></g><g class="arc"><path d="M129.27884764444522,202.20529061259577A240,240 0 0,1 64.36142706255309,231.20901086781126L48.271070296914814,173.40675815085845A180,180 0 0,0 96.95913573333392,151.65396795944685Z" style="fill: #6b486b;"></path><text transform="translate(85.66264722291868,191.7339585747965)" dy=".35em" style="text-anchor: middle;font-size:12px">montrer</text></g><g class="arc"><path d="M64.36142706255309,231.20901086781126A240,240 0 0,1 34.015954139141066,237.57717664793444L25.5119656043558,178.18288248595084A180,180 0 0,0 48.271070296914814,173.40675815085845Z" style="fill: #a05d56;"></path><text transform="translate(43.130184050180304,205.52320361408727)" dy=".35em" style="text-anchor: middle;font-size:12px">concevoir</text></g><g class="arc"><path d="M34.015954139141066,237.57717664793444A240,240 0 0,1 -30.94171256799025,237.9970807034403L-23.20628442599269,178.4978105275802A180,180 0 0,0 25.5119656043558,178.18288248595084Z" style="fill: #d0743c;"></path><text transform="translate(1.3574688532734283,209.9956125215772)" dy=".35em" style="text-anchor: middle;font-size:12px">illustrer</text></g><g class="arc"><path d="M-30.94171256799025,237.9970807034403A240,240 0 0,1 -102.13087647592005,217.18490755635017L-76.59815735694004,162.88868066726263A180,180 0 0,0 -23.20628442599269,178.4978105275802Z" style="fill: #ff8c00;"></path><text transform="translate(-58.926979601603016,201.56292088336153)" dy=".35em" style="text-anchor: middle;font-size:12px">utiliser</text></g><g class="arc"><path d="M-102.13087647592005,217.18490755635017A240,240 0 0,1 -118.65394714172312,208.61745091839555L-88.99046035629235,156.46308818879666A180,180 0 0,0 -76.59815735694004,162.88868066726263Z" style="fill: #98abc5;"></path><text transform="translate(-96.66605779941288,186.4287350960698)" dy=".35em" style="text-anchor: middle;font-size:12px">identifier</text></g><g class="arc"><path d="M-118.65394714172312,208.61745091839555A240,240 0 0,1 -131.88215473699336,200.5170747391048L-98.91161605274502,150.38780605432862A180,180 0 0,0 -88.99046035629235,156.46308818879666Z" style="fill: #8a89a6;"></path><text transform="translate(-109.66682083386497,179.08988918471348)" dy=".35em" style="text-anchor: middle;font-size:12px">arranger</text></g><g class="arc"><path d="M-131.88215473699336,200.5170747391048A240,240 0 0,1 -165.82299445163702,173.5013962799503L-124.36724583872775,130.12604720996273A180,180 0 0,0 -98.91161605274502,150.38780605432862Z" style="fill: #7b6888;"></path><text transform="translate(-130.7811855445722,164.30545184976722)" dy=".35em" style="text-anchor: middle;font-size:12px">nommer</text></g><g class="arc"><path d="M-165.82299445163702,173.5013962799503A240,240 0 0,1 -178.76939813928138,160.12964213074076L-134.07704860446103,120.09723159805556A180,180 0 0,0 -124.36724583872775,130.12604720996273Z" style="fill: #6b486b;"></path><text transform="translate(-150.87263514596853,146.07343346451285)" dy=".35em" style="text-anchor: middle;font-size:12px">associer</text></g><g class="arc"><path d="M-178.76939813928138,160.12964213074076A240,240 0 0,1 -233.16811399632635,56.856227586748595L-174.87608549724476,42.64217069006145A180,180 0 0,0 -134.07704860446103,120.09723159805556Z" style="fill: #a05d56;"></path><text transform="translate(-185.79997740709814,97.86913913753314)" dy=".35em" style="text-anchor: middle;font-size:12px">calculer</text></g><g class="arc"><path d="M-233.16811399632635,56.856227586748595A240,240 0 0,1 -215.1636166656982,-106.32317745128046L-161.37271249927366,-79.74238308846034A180,180 0 0,0 -174.87608549724476,42.64217069006145Z" style="fill: #d0743c;"></path><text transform="translate(-208.73328982895544,-23.030712476631713)" dy=".35em" style="text-anchor: middle;font-size:12px">distinguer</text></g><g class="arc"><path d="M-215.1636166656982,-106.32317745128046A240,240 0 0,1 -126.65393284792364,-203.85970983535137L-94.99044963594274,-152.89478237651352A180,180 0 0,0 -161.37271249927366,-79.74238308846034Z" style="fill: #ff8c00;"></path><text transform="translate(-155.5142427528909,-141.1216507166598)" dy=".35em" style="text-anchor: middle;font-size:12px">expérimenter</text></g><g class="arc"><path d="M-126.65393284792364,-203.85970983535137A240,240 0 0,1 -93.6326437841508,-220.9817368426412L-70.2244828381131,-165.7363026319809A180,180 0 0,0 -94.99044963594274,-152.89478237651352Z" style="fill: #98abc5;"></path><text transform="translate(-96.66605779941301,-186.42873509606972)" dy=".35em" style="text-anchor: middle;font-size:12px">récupérer</text></g><g class="arc"><path d="M-93.6326437841508,-220.9817368426412A240,240 0 0,1 -79.16237041154585,-226.56857485279198L-59.37177780865938,-169.926431139594A180,180 0 0,0 -70.2244828381131,-165.7363026319809Z" style="fill: #8a89a6;"></path><text transform="translate(-75.6373222089891,-195.90557799372013)" dy=".35em" style="text-anchor: middle;font-size:12px">représenter</text></g><g class="arc"><path d="M-79.16237041154585,-226.56857485279198A240,240 0 0,1 -4.408582873760558e-14,-240L-3.3064371553204186e-14,-180A180,180 0 0,0 -59.37177780865938,-169.926431139594Z" style="fill: #7b6888;"></path><text transform="translate(-35.128509581246625,-207.04102930240725)" dy=".35em" style="text-anchor: middle;font-size:12px">modifier</text></g></g></svg>