<svg width="1280" height="800" version="1.1" xmlns="http://www.w3.org/2000/svg"> <style type="text/css">
	.node circle {
	  cursor: pointer;
	  fill: #fff;
	  stroke: steelblue;
	  stroke-width: 1.5px;
	}
	.node text {
	  font-size: 11px;
	}
	path.link {
	  fill: none;
	  stroke: #ccc;
	  stroke-width: 1.5px;
	}
  </style>
<g transform="translate(120,50)"><path class="link" d="M0,315C90,315 90,12.727272727272727 180,12.727272727272727"></path><path class="link" d="M0,315C90,315 90,25.454545454545453 180,25.454545454545453"></path><path class="link" d="M0,315C90,315 90,38.18181818181818 180,38.18181818181818"></path><path class="link" d="M0,315C90,315 90,50.90909090909091 180,50.90909090909091"></path><path class="link" d="M0,315C90,315 90,63.63636363636364 180,63.63636363636364"></path><path class="link" d="M0,315C90,315 90,76.36363636363636 180,76.36363636363636"></path><path class="link" d="M0,315C90,315 90,89.09090909090908 180,89.09090909090908"></path><path class="link" d="M0,315C90,315 90,101.81818181818181 180,101.81818181818181"></path><path class="link" d="M0,315C90,315 90,140 180,140"></path><path class="link" d="M0,315C90,315 90,178.18181818181816 180,178.18181818181816"></path><path class="link" d="M0,315C90,315 90,216.36363636363635 180,216.36363636363635"></path><path class="link" d="M0,315C90,315 90,254.54545454545456 180,254.54545454545456"></path><path class="link" d="M0,315C90,315 90,308.6363636363636 180,308.6363636363636"></path><path class="link" d="M0,315C90,315 90,362.72727272727275 180,362.72727272727275"></path><path class="link" d="M0,315C90,315 90,375.45454545454544 180,375.45454545454544"></path><path class="link" d="M0,315C90,315 90,388.1818181818182 180,388.1818181818182"></path><path class="link" d="M0,315C90,315 90,400.90909090909093 180,400.90909090909093"></path><path class="link" d="M0,315C90,315 90,413.6363636363637 180,413.6363636363637"></path><path class="link" d="M0,315C90,315 90,426.3636363636364 180,426.3636363636364"></path><path class="link" d="M0,315C90,315 90,458.1818181818182 180,458.1818181818182"></path><path class="link" d="M0,315C90,315 90,479.0909090909091 180,479.0909090909091"></path><path class="link" d="M0,315C90,315 90,500 180,500"></path><path class="link" d="M0,315C90,315 90,520.909090909091 180,520.909090909091"></path><path class="link" d="M0,315C90,315 90,541.8181818181818 180,541.8181818181818"></path><path class="link" d="M0,315C90,315 90,562.7272727272727 180,562.7272727272727"></path><path class="link" d="M0,315C90,315 90,583.6363636363636 180,583.6363636363636"></path><path class="link" d="M0,315C90,315 90,604.5454545454545 180,604.5454545454545"></path><path class="link" d="M0,315C90,315 90,617.2727272727273 180,617.2727272727273"></path><path class="link" d="M180,101.81818181818181C270,101.81818181818181 270,50.90909090909091 360,50.90909090909091"></path><path class="link" d="M180,101.81818181818181C270,101.81818181818181 270,63.63636363636364 360,63.63636363636364"></path><path class="link" d="M180,101.81818181818181C270,101.81818181818181 270,76.36363636363636 360,76.36363636363636"></path><path class="link" d="M180,101.81818181818181C270,101.81818181818181 270,89.09090909090908 360,89.09090909090908"></path><path class="link" d="M180,101.81818181818181C270,101.81818181818181 270,101.81818181818181 360,101.81818181818181"></path><path class="link" d="M180,101.81818181818181C270,101.81818181818181 270,114.54545454545455 360,114.54545454545455"></path><path class="link" d="M180,101.81818181818181C270,101.81818181818181 270,127.27272727272728 360,127.27272727272728"></path><path class="link" d="M180,101.81818181818181C270,101.81818181818181 270,140 360,140"></path><path class="link" d="M180,101.81818181818181C270,101.81818181818181 270,152.72727272727272 360,152.72727272727272"></path><path class="link" d="M360,76.36363636363636C450,76.36363636363636 450,19.09090909090909 540,19.09090909090909"></path><path class="link" d="M360,76.36363636363636C450,76.36363636363636 450,31.81818181818182 540,31.81818181818182"></path><path class="link" d="M360,76.36363636363636C450,76.36363636363636 450,44.54545454545454 540,44.54545454545454"></path><path class="link" d="M360,76.36363636363636C450,76.36363636363636 450,57.27272727272727 540,57.27272727272727"></path><path class="link" d="M360,76.36363636363636C450,76.36363636363636 450,70 540,70"></path><path class="link" d="M360,76.36363636363636C450,76.36363636363636 450,82.72727272727272 540,82.72727272727272"></path><path class="link" d="M360,76.36363636363636C450,76.36363636363636 450,95.45454545454545 540,95.45454545454545"></path><path class="link" d="M360,76.36363636363636C450,76.36363636363636 450,108.18181818181817 540,108.18181818181817"></path><path class="link" d="M360,76.36363636363636C450,76.36363636363636 450,120.9090909090909 540,120.9090909090909"></path><path class="link" d="M360,76.36363636363636C450,76.36363636363636 450,133.63636363636365 540,133.63636363636365"></path><path class="link" d="M180,362.72727272727275C270,362.72727272727275 270,350 360,350"></path><path class="link" d="M180,362.72727272727275C270,362.72727272727275 270,362.72727272727275 360,362.72727272727275"></path><path class="link" d="M180,362.72727272727275C270,362.72727272727275 270,375.45454545454544 360,375.45454545454544"></path><path class="link" d="M360,375.45454545454544C450,375.45454545454544 450,362.72727272727275 540,362.72727272727275"></path><path class="link" d="M360,375.45454545454544C450,375.45454545454544 450,375.45454545454544 540,375.45454545454544"></path><path class="link" d="M360,375.45454545454544C450,375.45454545454544 450,388.1818181818182 540,388.1818181818182"></path><path class="link" d="M180,458.1818181818182C270,458.1818181818182 270,458.1818181818182 360,458.1818181818182"></path><path class="link" d="M360,458.1818181818182C450,458.1818181818182 450,420 540,420"></path><path class="link" d="M360,458.1818181818182C450,458.1818181818182 450,432.7272727272727 540,432.7272727272727"></path><path class="link" d="M360,458.1818181818182C450,458.1818181818182 450,445.45454545454544 540,445.45454545454544"></path><path class="link" d="M360,458.1818181818182C450,458.1818181818182 450,458.1818181818182 540,458.1818181818182"></path><path class="link" d="M360,458.1818181818182C450,458.1818181818182 450,470.90909090909093 540,470.90909090909093"></path><path class="link" d="M360,458.1818181818182C450,458.1818181818182 450,483.6363636363636 540,483.6363636363636"></path><path class="link" d="M360,458.1818181818182C450,458.1818181818182 450,496.3636363636364 540,496.3636363636364"></path><path class="link" d="M180,426.3636363636364C270,426.3636363636364 270,420 360,420"></path><path class="link" d="M180,426.3636363636364C270,426.3636363636364 270,432.7272727272727 360,432.7272727272727"></path><path class="link" d="M180,254.54545454545456C270,254.54545454545456 270,248.1818181818182 360,248.1818181818182"></path><path class="link" d="M180,254.54545454545456C270,254.54545454545456 270,260.90909090909093 360,260.90909090909093"></path><path class="link" d="M360,248.1818181818182C450,248.1818181818182 450,159.0909090909091 540,159.0909090909091"></path><path class="link" d="M360,248.1818181818182C450,248.1818181818182 450,171.8181818181818 540,171.8181818181818"></path><path class="link" d="M360,248.1818181818182C450,248.1818181818182 450,184.54545454545453 540,184.54545454545453"></path><path class="link" d="M360,248.1818181818182C450,248.1818181818182 450,197.27272727272725 540,197.27272727272725"></path><path class="link" d="M360,248.1818181818182C450,248.1818181818182 450,210 540,210"></path><path class="link" d="M360,248.1818181818182C450,248.1818181818182 450,222.72727272727272 540,222.72727272727272"></path><path class="link" d="M360,248.1818181818182C450,248.1818181818182 450,235.45454545454547 540,235.45454545454547"></path><path class="link" d="M360,248.1818181818182C450,248.1818181818182 450,248.1818181818182 540,248.1818181818182"></path><path class="link" d="M360,248.1818181818182C450,248.1818181818182 450,260.90909090909093 540,260.90909090909093"></path><path class="link" d="M360,248.1818181818182C450,248.1818181818182 450,273.6363636363636 540,273.6363636363636"></path><path class="link" d="M360,248.1818181818182C450,248.1818181818182 450,286.3636363636364 540,286.3636363636364"></path><path class="link" d="M360,248.1818181818182C450,248.1818181818182 450,299.09090909090907 540,299.09090909090907"></path><path class="link" d="M360,248.1818181818182C450,248.1818181818182 450,311.8181818181818 540,311.8181818181818"></path><path class="link" d="M360,248.1818181818182C450,248.1818181818182 450,324.54545454545456 540,324.54545454545456"></path><path class="link" d="M360,248.1818181818182C450,248.1818181818182 450,337.27272727272725 540,337.27272727272725"></path><path class="link" d="M180,604.5454545454545C270,604.5454545454545 270,604.5454545454545 360,604.5454545454545"></path><path class="link" d="M360,604.5454545454545C450,604.5454545454545 450,521.8181818181819 540,521.8181818181819"></path><path class="link" d="M360,604.5454545454545C450,604.5454545454545 450,534.5454545454546 540,534.5454545454546"></path><path class="link" d="M360,604.5454545454545C450,604.5454545454545 450,547.2727272727273 540,547.2727272727273"></path><path class="link" d="M360,604.5454545454545C450,604.5454545454545 450,560 540,560"></path><path class="link" d="M360,604.5454545454545C450,604.5454545454545 450,572.7272727272727 540,572.7272727272727"></path><path class="link" d="M360,604.5454545454545C450,604.5454545454545 450,585.4545454545454 540,585.4545454545454"></path><path class="link" d="M360,604.5454545454545C450,604.5454545454545 450,598.1818181818181 540,598.1818181818181"></path><path class="link" d="M360,604.5454545454545C450,604.5454545454545 450,610.9090909090909 540,610.9090909090909"></path><path class="link" d="M360,604.5454545454545C450,604.5454545454545 450,623.6363636363636 540,623.6363636363636"></path><path class="link" d="M360,604.5454545454545C450,604.5454545454545 450,636.3636363636364 540,636.3636363636364"></path><path class="link" d="M360,604.5454545454545C450,604.5454545454545 450,649.0909090909091 540,649.0909090909091"></path><path class="link" d="M360,604.5454545454545C450,604.5454545454545 450,661.8181818181818 540,661.8181818181818"></path><path class="link" d="M360,604.5454545454545C450,604.5454545454545 450,674.5454545454545 540,674.5454545454545"></path><path class="link" d="M360,604.5454545454545C450,604.5454545454545 450,687.2727272727273 540,687.2727272727273"></path><g class="node" transform="translate(180,617.272705078125)"><circle r="4.5" style="fill: #b0c4de;"></circle><text x="-10" dy=".35em" text-anchor="end"><a style="cursor: pointer;">sante-social</a></text></g><g class="node" transform="translate(180,604.5454711914062)"><circle r="4.5" style="fill: #ffffff;"></circle><text x="-10" dy=".35em" text-anchor="end"><a style="cursor: pointer;">informatique</a></text></g><g class="node" transform="translate(180,583.6363525390625)"><circle r="4.5" style="fill: #b0c4de;"></circle><text x="-10" dy=".35em" text-anchor="end"><a style="cursor: pointer;">arts-creation</a></text></g><g class="node" transform="translate(180,562.727294921875)"><circle r="4.5" style="fill: #b0c4de;"></circle><text x="-10" dy=".35em" text-anchor="end"><a style="cursor: pointer;">technologie</a></text></g><g class="node" transform="translate(180,541.8181762695312)"><circle r="4.5" style="fill: #b0c4de;"></circle><text x="-10" dy=".35em" text-anchor="end"><a style="cursor: pointer;">sciences-laboratoire</a></text></g><g class="node" transform="translate(180,520.9091186523438)"><circle r="4.5" style="fill: #b0c4de;"></circle><text x="-10" dy=".35em" text-anchor="end"><a style="cursor: pointer;">droit</a></text></g><g class="node" transform="translate(180,500)"><circle r="4.5" style="fill: #b0c4de;"></circle><text x="-10" dy=".35em" text-anchor="end"><a style="cursor: pointer;">litterature-etrangere</a></text></g><g class="node" transform="translate(180,479.0909118652344)"><circle r="4.5" style="fill: #b0c4de;"></circle><text x="-10" dy=".35em" text-anchor="end"><a style="cursor: pointer;">creation-innovation-technologiques</a></text></g><g class="node" transform="translate(180,458.18182373046875)"><circle r="4.5" style="fill: #ffffff;"></circle><text x="-10" dy=".35em" text-anchor="end"><a style="cursor: pointer;">creation-culture-design</a></text></g><g class="node" transform="translate(180,426.3636474609375)"><circle r="4.5" style="fill: #ffffff;"></circle><text x="-10" dy=".35em" text-anchor="end"><a style="cursor: pointer;">litterature</a></text></g><g class="node" transform="translate(180,413.6363525390625)"><circle r="4.5" style="fill: #b0c4de;"></circle><text x="-10" dy=".35em" text-anchor="end"><a style="cursor: pointer;">exploration</a></text></g><g class="node" transform="translate(180,400.9090881347656)"><circle r="4.5" style="fill: #b0c4de;"></circle><text x="-10" dy=".35em" text-anchor="end"><a style="cursor: pointer;">economie-gestion</a></text></g><g class="node" transform="translate(180,388.18182373046875)"><circle r="4.5" style="fill: #b0c4de;"></circle><text x="-10" dy=".35em" text-anchor="end"><a style="cursor: pointer;">eps</a></text></g><g class="node" transform="translate(180,375.4545593261719)"><circle r="4.5" style="fill: #b0c4de;"></circle><text x="-10" dy=".35em" text-anchor="end"><a style="cursor: pointer;">histoire-des-arts</a></text></g><g class="node" transform="translate(180,362.7272644042969)"><circle r="4.5" style="fill: #ffffff;"></circle><text x="-10" dy=".35em" text-anchor="end"><a style="cursor: pointer;">ecjs</a></text></g><g class="node" transform="translate(180,308.6363525390625)"><circle r="4.5" style="fill: #b0c4de;"></circle><text x="-10" dy=".35em" text-anchor="end"><a style="cursor: pointer;">ses</a></text></g><g class="node" transform="translate(180,254.5454559326172)"><circle r="4.5" style="fill: #ffffff;"></circle><text x="-10" dy=".35em" text-anchor="end"><a style="cursor: pointer;">sciences-ingenieur</a></text></g><g class="node" transform="translate(180,216.36363220214844)"><circle r="4.5" style="fill: #b0c4de;"></circle><text x="-10" dy=".35em" text-anchor="end"><a style="cursor: pointer;">francais</a></text></g><g class="node" transform="translate(180,178.18182373046875)"><circle r="4.5" style="fill: #b0c4de;"></circle><text x="-10" dy=".35em" text-anchor="end"><a style="cursor: pointer;">biotechnologies</a></text></g><g class="node" transform="translate(180,140)"><circle r="4.5" style="fill: #b0c4de;"></circle><text x="-10" dy=".35em" text-anchor="end"><a style="cursor: pointer;">arts</a></text></g><g class="node" transform="translate(180,101.81818389892578)"><circle r="4.5" style="fill: #ffffff;"></circle><text x="-10" dy=".35em" text-anchor="end"><a style="cursor: pointer;">histoire-geo</a></text></g><g class="node" transform="translate(180,89.09091186523438)"><circle r="4.5" style="fill: #b0c4de;"></circle><text x="-10" dy=".35em" text-anchor="end"><a style="cursor: pointer;">physique-chimie</a></text></g><g class="node" transform="translate(180,76.36363983154297)"><circle r="4.5" style="fill: #b0c4de;"></circle><text x="-10" dy=".35em" text-anchor="end"><a style="cursor: pointer;">langues</a></text></g><g class="node" transform="translate(180,63.6363639831543)"><circle r="4.5" style="fill: #b0c4de;"></circle><text x="-10" dy=".35em" text-anchor="end"><a style="cursor: pointer;">arts-musique</a></text></g><g class="node" transform="translate(180,50.90909194946289)"><circle r="4.5" style="fill: #b0c4de;"></circle><text x="-10" dy=".35em" text-anchor="end"><a style="cursor: pointer;">methodes-pratiques-scientifiques</a></text></g><g class="node" transform="translate(180,38.181819915771484)"><circle r="4.5" style="fill: #b0c4de;"></circle><text x="-10" dy=".35em" text-anchor="end"><a style="cursor: pointer;">maths</a></text></g><g class="node" transform="translate(180,25.454545974731445)"><circle r="4.5" style="fill: #b0c4de;"></circle><text x="-10" dy=".35em" text-anchor="end"><a style="cursor: pointer;">sciences</a></text></g><g class="node" transform="translate(180,12.727272987365723)"><circle r="4.5" style="fill: #b0c4de;"></circle><text x="-10" dy=".35em" text-anchor="end"><a style="cursor: pointer;">svt</a></text></g><g class="node" transform="translate(0,315)"><circle r="4.5" style="fill: #ffffff;"></circle><text x="-10" dy=".35em" text-anchor="end"><a style="cursor: pointer;">Programme Scolaire</a></text></g><g class="node" transform="translate(360,152.72727966308594)"><circle r="4.5" style="fill: #b0c4de;"></circle><text x="-10" dy=".35em" text-anchor="end"><a style="cursor: pointer;">1</a></text></g><g class="node" transform="translate(360,140)"><circle r="4.5" style="fill: #b0c4de;"></circle><text x="-10" dy=".35em" text-anchor="end"><a style="cursor: pointer;">TS-opt</a></text></g><g class="node" transform="translate(360,127.2727279663086)"><circle r="4.5" style="fill: #b0c4de;"></circle><text x="-10" dy=".35em" text-anchor="end"><a style="cursor: pointer;">4</a></text></g><g class="node" transform="translate(360,114.54545593261719)"><circle r="4.5" style="fill: #b0c4de;"></circle><text x="-10" dy=".35em" text-anchor="end"><a style="cursor: pointer;">2</a></text></g><g class="node" transform="translate(360,101.81818389892578)"><circle r="4.5" style="fill: #b0c4de;"></circle><text x="-10" dy=".35em" text-anchor="end"><a style="cursor: pointer;">3</a></text></g><g class="node" transform="translate(360,89.09091186523438)"><circle r="4.5" style="fill: #b0c4de;"></circle><text x="-10" dy=".35em" text-anchor="end"><a style="cursor: pointer;">6</a></text></g><g class="node" transform="translate(360,76.36363983154297)"><circle r="4.5" style="fill: #ffffff;"></circle><text x="-10" dy=".35em" text-anchor="end"><a style="cursor: pointer;">intro</a></text></g><g class="node" transform="translate(360,63.6363639831543)"><circle r="4.5" style="fill: #b0c4de;"></circle><text x="-10" dy=".35em" text-anchor="end"><a style="cursor: pointer;">5</a></text></g><g class="node" transform="translate(360,50.90909194946289)"><circle r="4.5" style="fill: #b0c4de;"></circle><text x="-10" dy=".35em" text-anchor="end"><a style="cursor: pointer;">TES-L</a></text></g><g class="node" transform="translate(540,133.63636779785156)"><circle r="4.5" style="fill: #ffffff;"></circle><text x="10" dy=".35em" text-anchor="start"><a style="cursor: pointer;">résoudre</a></text></g><g class="node" transform="translate(540,120.90908813476562)"><circle r="4.5" style="fill: #ffffff;"></circle><text x="10" dy=".35em" text-anchor="start"><a style="cursor: pointer;">construire</a></text></g><g class="node" transform="translate(540,108.18181610107422)"><circle r="4.5" style="fill: #ffffff;"></circle><text x="10" dy=".35em" text-anchor="start"><a style="cursor: pointer;">intégrer</a></text></g><g class="node" transform="translate(540,95.45454406738281)"><circle r="4.5" style="fill: #ffffff;"></circle><text x="10" dy=".35em" text-anchor="start"><a style="cursor: pointer;">utiliser</a></text></g><g class="node" transform="translate(540,82.7272720336914)"><circle r="4.5" style="fill: #ffffff;"></circle><text x="10" dy=".35em" text-anchor="start"><a style="cursor: pointer;">évaluer</a></text></g><g class="node" transform="translate(540,70)"><circle r="4.5" style="fill: #ffffff;"></circle><text x="10" dy=".35em" text-anchor="start"><a style="cursor: pointer;">identifier</a></text></g><g class="node" transform="translate(540,57.272727966308594)"><circle r="4.5" style="fill: #ffffff;"></circle><text x="10" dy=".35em" text-anchor="start"><a style="cursor: pointer;">décrire</a></text></g><g class="node" transform="translate(540,44.54545593261719)"><circle r="4.5" style="fill: #ffffff;"></circle><text x="10" dy=".35em" text-anchor="start"><a style="cursor: pointer;">comprendre</a></text></g><g class="node" transform="translate(540,31.81818199157715)"><circle r="4.5" style="fill: #ffffff;"></circle><text x="10" dy=".35em" text-anchor="start"><a style="cursor: pointer;">réaliser</a></text></g><g class="node" transform="translate(540,19.090909957885742)"><circle r="4.5" style="fill: #ffffff;"></circle><text x="10" dy=".35em" text-anchor="start"><a style="cursor: pointer;">analyser</a></text></g><g class="node" transform="translate(360,375.4545593261719)"><circle r="4.5" style="fill: #ffffff;"></circle><text x="-10" dy=".35em" text-anchor="end"><a style="cursor: pointer;">1</a></text></g><g class="node" transform="translate(360,362.7272644042969)"><circle r="4.5" style="fill: #b0c4de;"></circle><text x="-10" dy=".35em" text-anchor="end"><a style="cursor: pointer;">T</a></text></g><g class="node" transform="translate(360,350)"><circle r="4.5" style="fill: #b0c4de;"></circle><text x="-10" dy=".35em" text-anchor="end"><a style="cursor: pointer;">2</a></text></g><g class="node" transform="translate(540,388.18182373046875)"><circle r="4.5" style="fill: #ffffff;"></circle><text x="10" dy=".35em" text-anchor="start"><a style="cursor: pointer;">juger</a></text></g><g class="node" transform="translate(540,375.4545593261719)"><circle r="4.5" style="fill: #ffffff;"></circle><text x="10" dy=".35em" text-anchor="start"><a style="cursor: pointer;">comprendre</a></text></g><g class="node" transform="translate(540,362.7272644042969)"><circle r="4.5" style="fill: #ffffff;"></circle><text x="10" dy=".35em" text-anchor="start"><a style="cursor: pointer;">analyser</a></text></g><g class="node" transform="translate(360,458.18182373046875)"><circle r="4.5" style="fill: #ffffff;"></circle><text x="-10" dy=".35em" text-anchor="end"><a style="cursor: pointer;">2</a></text></g><g class="node" transform="translate(540,496.3636474609375)"><circle r="4.5" style="fill: #ffffff;"></circle><text x="10" dy=".35em" text-anchor="start"><a style="cursor: pointer;">comparer</a></text></g><g class="node" transform="translate(540,483.6363525390625)"><circle r="4.5" style="fill: #ffffff;"></circle><text x="10" dy=".35em" text-anchor="start"><a style="cursor: pointer;">expérimenter</a></text></g><g class="node" transform="translate(540,470.9090881347656)"><circle r="4.5" style="fill: #ffffff;"></circle><text x="10" dy=".35em" text-anchor="start"><a style="cursor: pointer;">sélectionner</a></text></g><g class="node" transform="translate(540,458.18182373046875)"><circle r="4.5" style="fill: #ffffff;"></circle><text x="10" dy=".35em" text-anchor="start"><a style="cursor: pointer;">utiliser</a></text></g><g class="node" transform="translate(540,445.4545593261719)"><circle r="4.5" style="fill: #ffffff;"></circle><text x="10" dy=".35em" text-anchor="start"><a style="cursor: pointer;">évaluer</a></text></g><g class="node" transform="translate(540,432.7272644042969)"><circle r="4.5" style="fill: #ffffff;"></circle><text x="10" dy=".35em" text-anchor="start"><a style="cursor: pointer;">identifier</a></text></g><g class="node" transform="translate(540,420)"><circle r="4.5" style="fill: #ffffff;"></circle><text x="10" dy=".35em" text-anchor="start"><a style="cursor: pointer;">analyser</a></text></g><g class="node" transform="translate(360,432.7272644042969)"><circle r="4.5" style="fill: #b0c4de;"></circle><text x="-10" dy=".35em" text-anchor="end"><a style="cursor: pointer;">2</a></text></g><g class="node" transform="translate(360,420)"><circle r="4.5" style="fill: #b0c4de;"></circle><text x="-10" dy=".35em" text-anchor="end"><a style="cursor: pointer;">TL</a></text></g><g class="node" transform="translate(360,260.9090881347656)"><circle r="4.5" style="fill: #b0c4de;"></circle><text x="-10" dy=".35em" text-anchor="end"><a style="cursor: pointer;">2</a></text></g><g class="node" transform="translate(360,248.18182373046875)"><circle r="4.5" style="fill: #ffffff;"></circle><text x="-10" dy=".35em" text-anchor="end"><a style="cursor: pointer;">T</a></text></g><g class="node" transform="translate(540,337.2727355957031)"><circle r="4.5" style="fill: #ffffff;"></circle><text x="10" dy=".35em" text-anchor="start"><a style="cursor: pointer;">interpréter</a></text></g><g class="node" transform="translate(540,324.5454406738281)"><circle r="4.5" style="fill: #ffffff;"></circle><text x="10" dy=".35em" text-anchor="start"><a style="cursor: pointer;">traduire</a></text></g><g class="node" transform="translate(540,311.81817626953125)"><circle r="4.5" style="fill: #ffffff;"></circle><text x="10" dy=".35em" text-anchor="start"><a style="cursor: pointer;">résoudre</a></text></g><g class="node" transform="translate(540,299.0909118652344)"><circle r="4.5" style="fill: #ffffff;"></circle><text x="10" dy=".35em" text-anchor="start"><a style="cursor: pointer;">comparer</a></text></g><g class="node" transform="translate(540,286.3636474609375)"><circle r="4.5" style="fill: #ffffff;"></circle><text x="10" dy=".35em" text-anchor="start"><a style="cursor: pointer;">modifier</a></text></g><g class="node" transform="translate(540,273.6363525390625)"><circle r="4.5" style="fill: #ffffff;"></circle><text x="10" dy=".35em" text-anchor="start"><a style="cursor: pointer;">utiliser</a></text></g><g class="node" transform="translate(540,260.9090881347656)"><circle r="4.5" style="fill: #ffffff;"></circle><text x="10" dy=".35em" text-anchor="start"><a style="cursor: pointer;">évaluer</a></text></g><g class="node" transform="translate(540,248.18182373046875)"><circle r="4.5" style="fill: #ffffff;"></circle><text x="10" dy=".35em" text-anchor="start"><a style="cursor: pointer;">vérifier</a></text></g><g class="node" transform="translate(540,235.4545440673828)"><circle r="4.5" style="fill: #ffffff;"></circle><text x="10" dy=".35em" text-anchor="start"><a style="cursor: pointer;">identifier</a></text></g><g class="node" transform="translate(540,222.72727966308594)"><circle r="4.5" style="fill: #ffffff;"></circle><text x="10" dy=".35em" text-anchor="start"><a style="cursor: pointer;">décrire</a></text></g><g class="node" transform="translate(540,210)"><circle r="4.5" style="fill: #ffffff;"></circle><text x="10" dy=".35em" text-anchor="start"><a style="cursor: pointer;">réaliser</a></text></g><g class="node" transform="translate(540,197.27272033691406)"><circle r="4.5" style="fill: #ffffff;"></circle><text x="10" dy=".35em" text-anchor="start"><a style="cursor: pointer;">représenter</a></text></g><g class="node" transform="translate(540,184.5454559326172)"><circle r="4.5" style="fill: #ffffff;"></circle><text x="10" dy=".35em" text-anchor="start"><a style="cursor: pointer;">analyser</a></text></g><g class="node" transform="translate(540,171.81817626953125)"><circle r="4.5" style="fill: #ffffff;"></circle><text x="10" dy=".35em" text-anchor="start"><a style="cursor: pointer;">produire</a></text></g><g class="node" transform="translate(540,159.09091186523438)"><circle r="4.5" style="fill: #ffffff;"></circle><text x="10" dy=".35em" text-anchor="start"><a style="cursor: pointer;">associer</a></text></g><g class="node" transform="translate(360,604.5454711914062)"><circle r="4.5" style="fill: #ffffff;"></circle><text x="-10" dy=".35em" text-anchor="end"><a style="cursor: pointer;">TS</a></text></g><g class="node" transform="translate(540,687.272705078125)"><circle r="4.5" style="fill: #ffffff;"></circle><text x="10" dy=".35em" text-anchor="start"><a style="cursor: pointer;">distinguer</a></text></g><g class="node" transform="translate(540,674.5454711914062)"><circle r="4.5" style="fill: #ffffff;"></circle><text x="10" dy=".35em" text-anchor="start"><a style="cursor: pointer;">rappeler</a></text></g><g class="node" transform="translate(540,661.8181762695312)"><circle r="4.5" style="fill: #ffffff;"></circle><text x="10" dy=".35em" text-anchor="start"><a style="cursor: pointer;">résoudre</a></text></g><g class="node" transform="translate(540,649.0908813476562)"><circle r="4.5" style="fill: #ffffff;"></circle><text x="10" dy=".35em" text-anchor="start"><a style="cursor: pointer;">concevoir</a></text></g><g class="node" transform="translate(540,636.3636474609375)"><circle r="4.5" style="fill: #ffffff;"></circle><text x="10" dy=".35em" text-anchor="start"><a style="cursor: pointer;">modifier</a></text></g><g class="node" transform="translate(540,623.6363525390625)"><circle r="4.5" style="fill: #ffffff;"></circle><text x="10" dy=".35em" text-anchor="start"><a style="cursor: pointer;">utiliser</a></text></g><g class="node" transform="translate(540,610.9091186523438)"><circle r="4.5" style="fill: #ffffff;"></circle><text x="10" dy=".35em" text-anchor="start"><a style="cursor: pointer;">créer</a></text></g><g class="node" transform="translate(540,598.1818237304688)"><circle r="4.5" style="fill: #ffffff;"></circle><text x="10" dy=".35em" text-anchor="start"><a style="cursor: pointer;">identifier</a></text></g><g class="node" transform="translate(540,585.4545288085938)"><circle r="4.5" style="fill: #ffffff;"></circle><text x="10" dy=".35em" text-anchor="start"><a style="cursor: pointer;">décrire</a></text></g><g class="node" transform="translate(540,572.727294921875)"><circle r="4.5" style="fill: #ffffff;"></circle><text x="10" dy=".35em" text-anchor="start"><a style="cursor: pointer;">comprendre</a></text></g><g class="node" transform="translate(540,560)"><circle r="4.5" style="fill: #ffffff;"></circle><text x="10" dy=".35em" text-anchor="start"><a style="cursor: pointer;">expliquer</a></text></g><g class="node" transform="translate(540,547.272705078125)"><circle r="4.5" style="fill: #ffffff;"></circle><text x="10" dy=".35em" text-anchor="start"><a style="cursor: pointer;">organiser</a></text></g><g class="node" transform="translate(540,534.5454711914062)"><circle r="4.5" style="fill: #ffffff;"></circle><text x="10" dy=".35em" text-anchor="start"><a style="cursor: pointer;">analyser</a></text></g><g class="node" transform="translate(540,521.8181762695312)"><circle r="4.5" style="fill: #ffffff;"></circle><text x="10" dy=".35em" text-anchor="start"><a style="cursor: pointer;">exécuter</a></text></g></g></svg>